<svg xmlns="http://www.w3.org/2000/svg" xmlns:xlink="http://www.w3.org/1999/xlink" viewBox="0 0 512 512"><defs><style>.a{fill:#fff;}.b{fill:#2c8bff;}.c{fill:url(#a);}</style><linearGradient id="a" x1="306.62" y1="1453.84" x2="657.12" y2="1757.61" gradientTransform="translate(-164.2 -1265.68)" gradientUnits="userSpaceOnUse"><stop offset="0.24" stop-color="#2c8bff"/><stop offset="0.31" stop-color="#2b86fd"/><stop offset="0.4" stop-color="#2776f6"/><stop offset="0.5" stop-color="#215cec"/><stop offset="0.6" stop-color="#1938dd"/><stop offset="0.67" stop-color="#131dd2"/></linearGradient></defs><circle class="a" cx="256" cy="256" r="256"/><circle class="b" cx="127.21" cy="48.11" r="9.02"/><circle class="b" cx="180.87" cy="57.74" r="18.03"/><path class="c" d="M383.09,296.67c-17.07-37.26-51.54-49.51-51.54-49.51,40.39-28.27,32.89-73.85,32.89-73.85-5.38-40.87-27.65-61.75-47.82-72.31a97,97,0,0,0-45-10.82H228.78a22.5,22.5,0,0,1-26.09,29.95A37,37,0,0,0,174.28,91h0a37.12,37.12,0,0,0-16.71.25h0a36.46,36.46,0,0,0-7.69,2.85,37,37,0,0,0,.66,66.4l2.69,278.4H279.74a125.56,125.56,0,0,0,41.3-6.75,108.62,108.62,0,0,0,45-29.07A97.64,97.64,0,0,0,383.09,296.67Zm-85.94-183a5,5,0,1,1-5,5h0A5,5,0,0,1,297.15,113.62ZM260.87,98.75a11.39,11.39,0,1,1-11.38,11.38h0a11.38,11.38,0,0,1,11.38-11.38ZM319,356.64c-7.37,9.62-17.77,12.88-22.91,14.52-4.39,1.39-9,1.87-18.2,2.79-10.29,1-18.41,1.33-27.12,1.58s-19.9.5-33.17.58v-223H260s45.56,1.73,41.52,39.83c0,0-3.18,31.73-36.06,32.31,0,0-44.14,4-43.85,44.14a91.45,91.45,0,0,0,3.14,18.21,8.54,8.54,0,0,0,10.55,5.86,9.73,9.73,0,0,0,1.27-.48c13.87-6.46,43.62-15.5,72.45,7,9.08,7.09,13.29,13.94,14,15.47A40.47,40.47,0,0,1,319,356.66Z"/></svg>