<svg xmlns="http://www.w3.org/2000/svg" viewBox="0 0 701.16 333.29"><defs><style>.a{fill:#fff;}.b{fill:none;stroke:#000;stroke-miterlimit:10;}</style></defs><circle class="a" cx="7.5" cy="7.5" r="7.5"/><circle class="a" cx="52.14" cy="15.51" r="15"/><path class="a" d="M220.38,214.29c-14.2-31-42.88-41.19-42.88-41.19,33.6-23.52,27.36-61.44,27.36-61.44-4.47-34-23-51.37-39.78-60.16a80.81,80.81,0,0,0-37.46-9H92a18.72,18.72,0,0,1-21.7,24.92A30.82,30.82,0,0,0,46.66,43.18h0a30.91,30.91,0,0,0-13.9.21h0a30.38,30.38,0,0,0-6.4,2.37A30.76,30.76,0,0,0,26.91,101l2.24,231.62H134.4A104.57,104.57,0,0,0,168.76,327a90.43,90.43,0,0,0,37.44-24.18A81.25,81.25,0,0,0,220.38,214.29ZM148.88,62a4.14,4.14,0,1,1-4.14,4.14A4.14,4.14,0,0,1,148.88,62ZM118.7,49.63a9.47,9.47,0,1,1-9.47,9.47h0a9.47,9.47,0,0,1,9.47-9.47Zm48.36,214.55c-6.13,8-14.78,10.72-19.06,12.08-3.65,1.16-7.53,1.56-15.14,2.32-8.56.85-15.32,1.11-22.56,1.32s-16.56.41-27.6.48V94.86H118S155.9,96.3,152.54,128c0,0-2.64,26.4-30,26.88,0,0-36.72,3.36-36.48,36.72a76.38,76.38,0,0,0,2.61,15.15,7.11,7.11,0,0,0,8.78,4.88,8,8,0,0,0,1.06-.4c11.54-5.38,36.29-12.9,60.27,5.81,7.56,5.9,11.06,11.6,11.68,12.87a33.66,33.66,0,0,1-3.4,34.29Z"/><path class="a" d="M259.55,85.53l-9-5.59s-3.2-1.08-.83-8.92,11.89-17.86,11.89-17.86S275.24,40.44,289.07,42s15.5,2.84,15.5,2.84,12.78,5.07,18.25,18.37,4.7,28.53,4.7,42.21V273l62.76-2.22s24.19,2.31,39-12.26c0,0,7-8.82,12.5,4.77s3,29.58,3,29.58-3.12,22.91-18.13,32.57-28.07,7.63-28.07,7.63-14,.47-47.71-5.69-70,2.78-70,2.78-10.26,6-11-5.87,1-30.62,1-30.62,1.28-13.09,1.28-54.13S272,114.63,272,114.63,272.68,95.29,259.55,85.53Z"/><line class="b" x1="643.56" y1="113.92" x2="643.56" y2="113.6"/><line class="b" x1="644.34" y1="79.51" x2="644.34" y2="79.5"/><path class="a" d="M699.23,203.38h0v32.45a91.38,91.38,0,0,1-6.56,30.6,107.9,107.9,0,0,1-40,48.81h0a107.11,107.11,0,0,1-27,12.95h0a107.44,107.44,0,0,1-32.52,5.1h-.6A107.64,107.64,0,0,1,486.46,241V210.37h0c0-42.47-.09-95.17-.09-95.17s.5-15.37-8.66-25.68a25.84,25.84,0,0,0-5.78-4.74l-7.19-4.45s-3.2-1.09-.82-9c1.76-5.87,7.52-12.94,10.35-16.18a27.46,27.46,0,0,1,3.78-3.61c4.4-3.48,14.85-10.59,25.42-9.42C517.38,43.66,519.06,45,519.06,45s12.85,5.09,18.35,18.46,4.73,28.7,4.73,42.45V229.65a27.74,27.74,0,0,0,1.22,8.24A52,52,0,0,0,578.7,272.3h0c1,.27,1.94.53,2.93.74h0a52.19,52.19,0,0,0,22.46,0h0c1-.21,2-.47,2.93-.74h0a52,52,0,0,0,35.34-34.41c.42-1.33.7-2.77.7-2.77a58.36,58.36,0,0,0,1.37-15.31,17.8,17.8,0,0,0-1-6.71c-3.86-10.41-18.26-16.34-29-14.47A33.65,33.65,0,0,0,595.9,209a2.58,2.58,0,0,1-4.37-2.45,41.66,41.66,0,0,1,37-31.2,2.58,2.58,0,0,0,2.37-2.77,2.54,2.54,0,0,0-.61-1.48c-4.25-4.81-11.23-7.22-17.81-7.13a40.71,40.71,0,0,0-11,1.82,2.59,2.59,0,0,1-2.21-4.62,62,62,0,0,1,44.34-10c.67.1,1.34.21,2,.34,20.56,4,38.53,18.41,48,37.07A72.54,72.54,0,0,1,699.23,203.38Z"/><path class="a" d="M699.23,203.38a72.8,72.8,0,0,0-5.62-14.9c-9.52-18.67-27.46-33.11-48.05-37.07-.66-.13-1.33-.24-2-.34V113.92c-.85-5.58-3-11.09-7.42-14.48C631.39,95.78,624.9,95,619,96.05a47.8,47.8,0,0,0-11,3.57,2.09,2.09,0,0,1-2.59-3.07c8.38-12.28,24.19-19.35,38.92-17h0a2.1,2.1,0,0,0,2.4-1.74,2.13,2.13,0,0,0-.11-1.09c-3.16-8.09-12.36-13.31-21.28-13.92-7.31-.5-14.47,1.37-21.43,3.86a2.09,2.09,0,0,1-2.18-3.45,57.15,57.15,0,0,1,91.11,15.44c4.33,8.68,6.33,18.18,7.29,27.88.63,6.36.81,12.8.91,19.15C701.46,150.52,700.85,178.54,699.23,203.38Z"/></svg>